<svg height="28" viewBox="0 0 247 28" width="247" xmlns="http://www.w3.org/2000/svg"><g fill="none" fill-rule="evenodd"><path d="m46.562 27.85h.403v-27.727h-.403z" fill="#00274c"/><path d="m19.387 23.01-7.942-10.852v7.895h3.157v7.797h-14.602v-7.797h2.961v-12.137h-2.961v-7.793h11.473l7.914 10.93 7.914-10.93h11.469v7.793h-2.961v12.137h2.961v7.797h-14.602v-7.797h3.156v-7.895z" fill="#ffcb05"/><g fill="#00274c"><path d="m164.23 27.842v-.316c.399-.028.708-.059.708-.383 0-.117-.04-.242-.071-.348l-.172-.598h-2.07l-.184.504c-.039.129-.074.243-.074.368 0 .414.438.441.797.457v.316h-2.418v-.316c.617-.028.816-.149 1.039-.766l1.59-4.356-.094-.14c.68-.223.871-.328 1.164-.543.117.398.133.449.262.867l1.301 3.988c.234.707.344.883.965.95v.316zm-.531-4.711-.859 2.434h1.687zm-20.437 3.406c-.258.422-.883 1.461-2.504 1.461-1.766 0-2.914-1.301-2.914-3.015 0-1.59.972-3.153 2.953-3.153 1.043 0 1.598.438 1.937.707l.403-.363.031 1.777-.262.051c-.101-.344-.25-.617-.633-1.031-.179-.188-.613-.574-1.226-.574-1.063 0-1.899.863-1.899 2.386 0 1.289.688 2.504 2.047 2.504 1.024 0 1.41-.574 1.719-1.011zm.992 1.305v-.316c.664-.059.672-.2.672-.766.008-.207.008-.414.008-.621v-2.461c0-.387 0-.766-.028-.949-.031-.352-.199-.399-.652-.442v-.316h2.516v.316c-.493.051-.676.067-.735.391-.043.187-.051.621-.051.973v.808c.508.027.86.043 1.352.043.5 0 .894-.016 1.394-.043v-.98c-.007-1.075-.019-1.118-.816-1.192v-.316h2.547v.316c-.684.082-.684.094-.684 1.207v2.481c0 .226.008.972.035 1.144.04.309.215.367.649.41v.313h-2.547v-.313c.59-.066.746-.085.797-.488.019-.172.019-.394.019-.816v-1.078c-.464-.016-.855-.043-1.335-.043-.508 0-.907.015-1.411.043v1.078c.008 1.222.024 1.222.782 1.304v.317h-2.512zm7.242 0v-.316c.574-.075.692-.141.699-.754v-3.129c-.007-1.223-.007-1.254-.699-1.356v-.316h2.442v.316c-.688.067-.688.102-.688 1.356v2.371c0 .207.008.867.023 1.039.039.355.207.441.665.473v.316zm-16.726 0v-.316c.578-.075.691-.141.699-.754v-3.129c-.008-1.223-.008-1.254-.699-1.356v-.316h2.437v.316c-.687.067-.687.102-.687 1.356v2.371c0 .207.007.867.023 1.039.043.355.211.441.664.473v.316zm-3.696 0v-.316c.738-.047.738-.082.746-1.172v-2.95l-2.05 4.512h-.52l-1.887-4.574-.043 3.453c0 .574.071.684.692.731v.316h-2.035v-.316c.472-.028.656-.09.687-.489.016-.156.043-.652.051-.976l.082-2.461c.008-.192.008-.473.008-.68 0-.582-.117-.625-.641-.633v-.316h1.848l1.828 4.457 2.015-4.457h1.786v.348c-.7.042-.707.117-.7 1.031v2.422c0 .398.008.898.036 1.195.031.434.199.516.664.559v.316zm36.281 0v-.316c.481-.028.665-.032.731-.368.086-.386.109-3.871.117-4.48-.324-.301-.457-.359-.848-.391v-.316h1.762c.492.699.598.855 1.465 1.93l1.637 2.027v-2.629c-.008-.93-.031-.98-.965-1.012v-.316h2.316v.316c-.644.008-.699.141-.707 1.098l-.082 4.531h-.351l-.528-.656c-.261-.332-.531-.668-.797-.988l-2.316-2.864v3.043c0 .95.063.985.965 1.075v.316zm-48.984-2.945c0 2.031-1.383 3.097-2.937 3.097-1.711 0-3.043-1.234-3.043-3.105 0-1.602 1.074-3.051 2.961-3.043033 1.781.008033 3.019 1.273033 3.019 3.051033zm-2.933 2.554c.335-.007.8-.172 1.164-.726.414-.637.5-1.223.476-1.985-.023-.754-.234-1.406-.668-1.871-.187-.199-.558-.496-1.047-.48-.492 0-.851.308-1.035.515-.418.473-.609 1.129-.609 1.887 0 .766.101 1.348.535 1.969.383.543.851.691 1.184.691zm3.523.067v.324h2.434v-.324c-.61-.059-.684-.114-.704-.758l.008-1.672h.649c.656 0 1.007.063 1.047.715h.281v-1.938h-.281c-.032.633-.207.7-.922.7h-.774v-2.036c.207-.027.324-.031.699-.031 1.149 0 1.516-.008 1.672.91h.289l-.093-1.437h-4.305v.316c.422.043.609.067.668.34.039.184.047.832.047 1.067v2.058c0 .16-.008.871-.016 1.008-.019.644-.09.699-.699.758zm-50.465.285v-.32c.574-.075.688-.137.695-.754v-3.129c-.007-1.219-.007-1.254-.695-1.352v-.316h2.438v.316c-.692.067-.692.098-.692 1.352v2.371c0 .207.008.867.028 1.039.039.359.207.441.664.473v.32zm25.863 0v-.32c.575-.075.692-.137.7-.754v-3.129c-.008-1.219-.008-1.254-.7-1.352v-.316h2.438v.316c-.692.067-.692.098-.692 1.352v2.371c0 .207.008.867.028 1.039.039.359.207.441.664.473v.32zm-33.015 0v-.32c.484-.024.668-.032.734-.364.082-.39.11-3.875.117-4.48-.328-.301-.461-.36-.851-.391v-.316h1.765c.489.695.598.855 1.461 1.929l1.641 2.028v-2.629c-.008-.93-.035-.981-.965-1.012v-.316h2.309v.316c-.641.004-.696.141-.703 1.098l-.086 4.531h-.348l-.523-.656c-.266-.336-.532-.664-.797-.992l-2.321-2.86v3.043c0 .949.067.981.965 1.074v.317zm28.164-1.832.301-.031c.32.957.863 1.468 1.746 1.468.621 0 1.172-.265 1.172-.894 0-.668-.641-.934-.922-1.047-.235-.094-.485-.172-.719-.262-.481-.176-1.387-.547-1.387-1.687 0-1.094.863-1.715 1.871-1.715.391 0 .848.086 1.348.402l.355-.258.192 1.747-.293.058c-.098-.387-.172-.562-.406-.871-.282-.363-.68-.535-1.145-.535-.625 0-.988.301-.988.765 0 .696.687.934 1.344 1.145.335.113.609.203.847.344.465.277.848.789.848 1.496 0 1.015-.832 1.855-2.067 1.855-.8 0-1.293-.316-1.519-.468l-.492-.352zm9.652 1.832v-.25c.539-.012.692-.207.692-.672v-4.328h-.731c-.664 0-1.105-.027-1.156 1.023h-.305l.047-1.648h5.332l.051 1.648h-.309c-.051-1.05-.488-1.023-1.152-1.023h-.731v4.328c0 .465.149.66.688.672v.25zm-42.305-5.875v.32c-.785.055-.785.082-.793 1.328v1.379c0 .719.016 1.332.395 1.883.301.438.809.492 1.066.492.84 0 1.305-.433 1.504-1.129.164-.547.172-1.578.172-2.257 0-.219 0-.918-.008-1.106-.031-.535-.308-.551-.832-.59v-.316h2.239v.316c-.551-.012-.668.113-.7.699-.007.137-.074 1.77-.082 2.02-.019.445-.043.887-.14 1.312-.403 1.582-1.938 1.665-2.348 1.665-.324 0-.988-.051-1.539-.418-.875-.59-.883-1.469-.883-2.418v-1.332c-.008-.629-.008-.915-.023-1.063-.051-.367-.235-.437-.676-.465v-.316h2.648zm20.813 0v.32c-.566.082-.645.238-1.125 1.403l-1.789 4.265h-.316l-1.602-4.332c-.398-1.113-.449-1.246-1.039-1.336v-.32h2.785v.32c-.477.016-.785.031-.785.371 0 .168.043.309.203.797l1.023 2.988 1.196-3.085c.074-.208.172-.477.172-.622 0-.425-.414-.445-.782-.449v-.32zm27.832 5.875v-.32c.461-.047.637-.063.75-.18.137-.133.137-.281.141-.922v-1.031l-1.559-2.422c-.422-.633-.434-.649-.996-.68v-.328h3.055v.328c-.618.016-.891.031-.891.313 0 .16.109.343.262.593l.894 1.469.832-1.461c.149-.293.235-.465.235-.601 0-.282-.243-.285-.653-.313v-.328h2.293v.328c-.59.016-.761.192-1.433 1.285l-.914 1.532v1.222c0 1.067.004 1.149.879 1.196v.316h-2.895zm-22.801 0c0-.426.071-1.121.121-1.524h-.281c-.203 1.051-.789 1-1.641 1-.781 0-.937-.21-.937-.593v-1.641h.633c.722 0 .929.063.929.719h.282v-1.938h-.282c-.054.524-.164.696-.921.696h-.641v-2.071h.723c.996 0 1.355.075 1.488.871h.266l-.036-1.394h-4.179v.316c.422.043.605.067.664.344.043.184.047.828.047 1.063v2.062c0 .16-.004.867-.012 1.008-.02.64-.094.699-.699.758v.324zm77.754-2.555v.317c-.531.031-.531.183-.551 1.296v.442c-.453.281-1.105.687-2.257.687-2.02 0-2.985-1.531-2.985-3.066 0-1.879 1.27-3.105 2.867-3.105 1 0 1.578.375 2.059.667l.305-.347.047 1.832-.239.047c-.121-.352-.301-.754-.742-1.196-.195-.191-.57-.437-1.164-.437-1.023 0-1.875.863-1.875 2.555 0 1.347.668 2.504 1.809 2.504.652 0 .988-.458 1.019-.493.106-.156.129-.3.117-.554-.027-.75-.125-.766-.777-.832v-.317zm-75.027-.597c.156.035.383.062.547.062.668 0 1.172-.523 1.199-.992.035-.68-.309-1.274-1.387-1.274-.152 0-.242.008-.359.036zm0 1.281c.008 1.347.008 1.527.715 1.547v.324h-2.453v-.324c.632-.051.699-.153.707-.785.007-.243.007-.516.007-.754v-2.125c0-.704-.007-.954-.031-1.145-.043-.324-.203-.387-.683-.426v-.316l2.66.008c1.449 0 1.906.691 1.906 1.508 0 .566-.352 1.3-1.16 1.55l1.043 1.809c.375.691.574.848 1.051.914v.199c-.129.012-.254.016-.387.016-1.106 0-1.563-.379-2.028-1.371l-.324-.688c-.351-.742-.465-.695-1.023-.707z"/><path d="m55.176 12.725c-.047 1.656-.047 5.566 5.062 5.519 2.86 0 5.379-1.175 5.379-4.824 0-5.496-7.777-4.945-7.777-8.762 0-1.871 1.344-2.543 2.664-2.543 2.09 0 2.687 1.246 2.664 3.145h2.305c.144-3.527-1.633-5.066-4.801-5.066-2.902 0-5.086 1.632-5.086 4.707 0 5.207 7.773 4.773 7.773 8.613 0 2.066-1.343 2.808-3.093 2.808-1.418 0-2.907-.742-2.907-3.093v-.504z"/><path d="m77.832 5.33c.215-3.359-1.105-5.136-4.535-5.136-3.41 0-5.57 1.394-5.57 6.289v4.898c0 6.719 3.312 6.863 5.472 6.863 1.129 0 4.992 0 4.899-5.472h-2.282c-.023 3.382-2.062 3.625-2.738 3.625-1.703 0-3.094-.504-3.094-4.754v-4.633c0-2.977.43-3.406.504-3.598.071-.242.793-1.343 2.617-1.343.454 0 1.489.191 1.942.742.457.55.527 1.535.504 2.519z"/><path d="m82.535 17.885v-7.922h6.074v7.922h2.207v-17.328h-2.207v7.488h-6.074v-7.488h-2.207v17.328z"/><path d="m99.145 18.244c3.671 0 5.449-1.898 5.449-6.695v-5.691c0-3.454-1.778-5.664-5.449-5.664-3.672 0-5.45 2.21-5.45 5.664v5.691c0 4.797 1.778 6.695 5.45 6.695zm0-1.847c-2.09 0-3.192-.961-3.192-4.754v-5.856c0-3.625 2.496-3.742 3.192-3.742.695 0 3.191.117 3.191 3.742v5.856c0 3.793-1.106 4.754-3.191 4.754z"/><path d="m112.727 18.244c3.671 0 5.449-1.898 5.449-6.695v-5.691c0-3.454-1.778-5.664-5.449-5.664-3.672 0-5.446 2.21-5.446 5.664v5.691c0 4.797 1.774 6.695 5.446 6.695zm0-1.847c-2.086 0-3.192-.961-3.192-4.754v-5.856c0-3.625 2.496-3.742 3.192-3.742.699 0 3.195.117 3.195 3.742v5.856c0 3.793-1.106 4.754-3.195 4.754z"/><path d="m129.504 17.885v-1.922h-6.359v-15.406h-2.207v17.328z"/><path d="m140.137 18.244c3.672 0 5.449-1.898 5.449-6.695v-5.691c0-3.454-1.777-5.664-5.449-5.664s-5.449 2.21-5.449 5.664v5.691c0 4.797 1.777 6.695 5.449 6.695zm0-1.847c-2.09 0-3.192-.961-3.192-4.754v-5.856c0-3.625 2.496-3.742 3.192-3.742.695 0 3.191.117 3.191 3.742v5.856c0 3.793-1.105 4.754-3.191 4.754z"/><path d="m150.383 17.885v-7.922h6.051v-1.918h-6.051v-5.57h6.387v-1.918h-8.594v17.328z"/><path d="m172.199.557v14.832h-.047l-6.746-14.832h-3.117v17.328h1.969v-15.027h.047l6.84 15.027h3.023v-17.328z"/><path d="m177.023 11.549c0 4.797 1.778 6.695 5.45 6.695s5.449-1.898 5.449-6.695v-10.992h-2.211v11.086c0 3.793-1.152 4.754-3.238 4.754-2.09 0-3.243-.961-3.243-4.754v-11.086h-2.207z"/><path d="m192.84 2.475h3.336c1.703 0 2.328 1.39 2.328 2.64 0 1.512-.77 2.879-2.352 2.879h-3.312zm2.594 7.441c.742 0 2.445.094 2.613 2.207.191 2.305.051 4.559.672 5.762h2.304c-.335-1.082-.574-3.793-.597-4.539-.121-3.481-.84-4.152-2.832-4.461v-.051c2.039-.359 3.168-1.918 3.168-3.957 0-2.16-1.082-4.32-4.153-4.32h-5.976v17.328h2.207v-7.969z"/><path d="m202.465 12.725c-.051 1.656-.051 5.566 5.062 5.519 2.856 0 5.375-1.175 5.375-4.824 0-5.496-7.773-4.945-7.773-8.762 0-1.871 1.344-2.543 2.664-2.543 2.086 0 2.687 1.246 2.664 3.145h2.305c.14-3.527-1.633-5.066-4.801-5.066-2.906 0-5.09 1.632-5.09 4.707 0 5.207 7.777 4.773 7.777 8.613 0 2.066-1.343 2.808-3.097 2.808-1.414 0-2.903-.742-2.903-3.093v-.504z"/><path d="m215.496 17.885h2.207v-17.328h-2.207z"/><path d="m230.832.557v14.832h-.047l-6.746-14.832h-3.117v17.328h1.965v-15.027h.051l6.839 15.027h3.024v-17.328z"/><path d="m246.336 5.186c.144-3.621-1.633-4.992-5.375-4.992-3.672 0-5.449 2.21-5.449 5.664v5.691c0 4.797 1.777 6.695 5.449 6.695 2.23 0 3.887-.527 5.305-1.297v-8.425h-5.403v1.922h3.192v5.183c-.453.336-1.512.77-3.094.77-2.09 0-3.191-.961-3.191-4.754v-5.856c0-3.625 2.496-3.742 3.191-3.742 2.23 0 3.07 1.102 3.07 3.141z"/></g></g></svg>