<svg height="129" viewBox="0 0 200 129" width="200" xmlns="http://www.w3.org/2000/svg"><g fill="none" fill-rule="evenodd"><path d="m174.207595 128.883544v-.463291c.58481-.040506 1.03038-.078481 1.03038-.564557 0-.156962-.040507-.344304-.098734-.503797l-.248102-.881013h-3.035443l-.258228.741772c-.058227.189874-.118987.356962-.118987.534177 0 .612659.643038.653165 1.177215.673418v.463291h-3.53924v-.463291c.898734-.040506 1.187341-.217721 1.521519-1.118987l2.313924-6.367089-.126583-.207595c.987342-.326582 1.27595-.486076 1.701266-.792405.167089.574684.187342.653165.38481 1.265823l1.898735 5.835443c.336708 1.027848.49367 1.286076 1.405063 1.38481v.463291zm-.76962-6.891139-1.255697 3.559494h2.46076zm-29.896203 4.98481c-.374683.612658-1.286076 2.134177-3.658228 2.134177-2.582278 0-4.263291-1.90886-4.263291-4.410126 0-2.324051 1.425317-4.617722 4.321519-4.617722 1.524051 0 2.334177.653165 2.83038 1.037975l.582278-.534177.058228 2.6-.394936.081012c-.136709-.503797-.364557-.911392-.918988-1.513924-.268354-.275949-.901266-.840506-1.789873-.840506-1.562026 0-2.779747 1.265823-2.779747 3.491139 0 1.888608 1.010127 3.658228 2.987342 3.658228 1.503797 0 2.075949-.83038 2.521519-1.473418zm1.453165 1.906329v-.463291c.96962-.078481.979747-.296202.979747-1.118987.020253-.306329.020253-.612658.020253-.908861v-3.6c0-.562025 0-1.116456-.040507-1.38481-.048101-.513924-.296202-.582279-.959493-.643038v-.463291h3.670886v.463291c-.713924.070886-.979747.091139-1.068355.564557-.060759.275949-.078481.908861-.078481 1.425316v1.184811c.749367.040506 1.265823.060759 1.987342.060759.731646 0 1.303798-.020253 2.025317-.060759v-1.443038c0-1.562026-.017722-1.63038-1.184811-1.731646v-.463291h3.716456v.463291c-.987342.118987-.987342.129114-.987342 1.762025v3.617722c0 .336709.010127 1.425316.048102 1.683544.060759.443038.306329.531646.93924.592405v.463291h-3.716456v-.463291c.86076-.098734 1.096203-.118987 1.167089-.711392.017722-.248102.017722-.574684.017722-1.197469v-1.582278c-.670887-.020253-1.235443-.050633-1.946836-.050633-.741772 0-1.316456.020253-2.065823.050633v1.582278c.017722 1.789874.048102 1.789874 1.146836 1.908861v.463291zm10.592405 0v-.463291c.840506-.108861 1.007595-.207595 1.017721-1.108861v-4.577215c-.010126-1.779747-.010126-1.83038-1.017721-1.977215v-.465823h3.56962v.465823c-1.007595.098734-1.007595.146835-1.007595 1.977215v3.470886c0 .306329.020253 1.265823.037975 1.521519.060759.524051.298734.643038.96962.693671v.463291zm-24.455696 0v-.463291c.840506-.108861 1.007595-.207595 1.017721-1.108861v-4.577215c-.010126-1.779747-.010126-1.83038-1.017721-1.977215v-.465823h3.559493v.465823c-1.007595.098734-1.007595.146835-1.007595 1.977215v3.470886c0 .306329.017722 1.265823.037975 1.521519.060759.524051.306329.643038.96962.693671v.463291zm-5.410127 0v-.463291c1.078481-.068354 1.078481-.118987 1.098734-1.711392v-4.321519l-3.007595 6.605063h-.751899l-2.756962-6.693671-.070886 5.053165c0 .840506.108861 1 1.010127 1.068354v.463291h-2.977215v-.463291c.691139-.040506.959493-.13924 1.007595-.711392.030379-.237975.060759-.959494.081012-1.435443l.116456-3.589874c.010127-.286076.010127-.691139.010127-.997468 0-.850633-.167089-.921519-.929114-.929114v-.465823h2.691139l2.678481 6.516456 2.946835-6.516456h2.612659v.513924c-1.020254.06076-1.040507.177215-1.020254 1.503798v3.53924c0 .594937.010127 1.316456.040507 1.762026.048101.622784.296202.741772.979747.810126v.463291zm53.055696 0v-.463291c.703798-.040506.979747-.050633 1.078481-.544304.118988-.564557.149367-5.655696.156962-6.546835-.473417-.435443-.660759-.524051-1.235443-.564557v-.463291h2.582279c.711392 1.017721.868354 1.245569 2.134177 2.817721l2.405063 2.967089v-3.848101c-.020253-1.354431-.050633-1.432912-1.41519-1.473418v-.463291h3.382279v.463291c-.939241 0-1.017722.2-1.027848 1.602532l-.118988 6.625316h-.52405l-.762026-.956962c-.394936-.496202-.779746-.979747-1.167088-1.455696l-3.392405-4.182279v4.450633c0 1.38481.088607 1.432912 1.405063 1.572152v.463291zm-71.627848-4.301266c0 2.956963-2.027848 4.518988-4.301266 4.518988-2.491139 0-4.4405061-1.807595-4.4405061-4.539241 0-2.341772 1.5620254-4.458228 4.3215191-4.448137 2.610127.010163 4.420253 1.858264 4.420253 4.46839zm-4.291139 3.729114c.483544-.020253 1.177215-.258227 1.701266-1.068354.602531-.929114.731645-1.779747.701265-2.906329-.040506-1.098734-.346835-2.048101-.979746-2.731646-.27595-.296202-.810127-.721519-1.531646-.701266-.711392 0-1.24557.44557-1.513924.751899-.612658.691139-.888608 1.650633-.888608 2.759494 0 1.116456.146836 1.977215.779747 2.878481.554431.8 1.248102 1.017721 1.731646 1.017721zm5.151899.098735v.473417h3.559493v-.473417c-.888607-.088608-.997468-.177216-1.027848-1.108861l.010127-2.450633h.949367c.959493 0 1.473418.088608 1.531645 1.058228h.41519v-2.837975h-.41519c-.048101.918987-.306329 1.017722-1.35443 1.017722h-1.126582v-2.977216c.306329-.037974.473417-.037974 1.017721-.037974 1.681013 0 2.21519-.010127 2.453165 1.32405h.425316l-.13924-2.096202h-6.298734v.463291c.622784.060759.891139.091139.96962.496202.068354.265823.078481 1.21519.078481 1.551899v3.025317c0 .227848-.020253 1.265822-.03038 1.463291-.017721.931645-.126582 1.020253-1.017721 1.108861zm-73.8025321.415189v-.465822c.8405064-.108861 1.007595-.207595 1.0177216-1.106329v-4.569621c-.0101266-1.789873-.0101266-1.848101-1.0177216-1.987341v-.463292h3.5696203v.463292c-1.0101266.098734-1.0101266.13924-1.0101266 1.987341v3.46076c0 .298734.0101266 1.265823.0405063 1.52405.0582279.524051.2962026.632912.9696203.683545v.473417zm37.8253165 0v-.465822c.8405063-.108861 1.0101266-.207595 1.0177215-1.106329v-4.569621c-.0075949-1.789873-.0075949-1.848101-1.0177215-1.987341v-.463292h3.5594937v.463292c-1.007595.098734-1.007595.13924-1.007595 1.987341v3.46076c0 .298734.0202532 1.265823.0405064 1.52405.0582278.524051.3063291.632912.9670886.683545v.473417zm-48.278481 0v-.465822c.7113924-.037975.9696202-.048102 1.0683544-.531646.1265823-.574683.156962-5.668354.1670886-6.556962-.4734177-.435443-.6632911-.524051-1.235443-.574683v-.463292h2.5797468c.7139241 1.027848.8708861 1.265823 2.1367089 2.827848l2.392405 2.967089v-3.848101c-.0075949-1.354431-.0379746-1.422785-1.4126582-1.483544v-.455697h3.3924051v.455697c-.9392405.020253-1.0202532.207594-1.0405064 1.602531l-.1164557 6.635443h-.5164556l-.7594937-.959493c-.3974684-.493671-.7822785-.969621-1.1670886-1.453165l-3.3924051-4.182278v4.448101c0 1.38481.0987342 1.435443 1.4151899 1.564557v.473417zm41.1772152-2.681012.4455696-.048101c.4759494 1.405063 1.2556962 2.15443 2.5518987 2.15443.9088608 0 1.7113924-.394937 1.7113924-1.313924 0-.96962-.9291139-1.354431-1.3443038-1.534177-.3468354-.126583-.7037974-.24557-1.0506329-.374684-.7012658-.258228-2.0253164-.8-2.0253164-2.473418 0-1.6 1.2658227-2.501265 2.7291139-2.501265.5822785 0 1.2455696.118987 1.9772152.58481l.5240506-.377216.278481 2.551899-.4253164.078481c-.1493671-.551898-.2582279-.810126-.5949367-1.265823-.4151899-.534177-.9873418-.789873-1.6810127-.789873-.9088608 0-1.443038.44557-1.443038 1.126582 0 1.017722 1.007595 1.364557 1.9670886 1.681013.486076.159494.8911393.286076 1.2354431.493671.6835443.407595 1.2379747 1.159494 1.2379747 2.187342 0 1.483544-1.2177216 2.718987-3.0177216 2.718987-1.1670886 0-1.8886076-.465823-2.2253164-.691139l-.7113924-.516456zm14.1240506 2.681012v-.374683c.7898734-.010127 1.0075949-.298734 1.0075949-.979747v-6.318987h-1.0683544c-.9696202 0-1.6126582-.040507-1.6911392 1.493671h-.4455697l.0708861-2.412659h7.8025317l.0683544 2.412659h-.4556962c-.0683544-1.534178-.7113924-1.493671-1.6810127-1.493671h-1.0683544v6.318987c0 .681013.2177215.96962 1 .979747v.374683zm-61.878481-8.592405v.463292c-1.1367089.078481-1.1367089.129113-1.1468355 1.959493v2.007595c0 1.048101.0202532 1.946836.5746836 2.746836.443038.643038 1.1848101.72405 1.5620253.72405 1.2253165 0 1.8987342-.632911 2.1949367-1.653164.2481013-.8.2582279-2.303798.2582279-3.301266 0-.316456 0-1.336709-.0101266-1.622785-.0506329-.782278-.4556962-.8-1.2278481-.860759v-.463292h3.2734177v.463292c-.8-.020254-.9696203.16962-1.0177215 1.017721-.0101266.207595-.1088608 2.592405-.1189874 2.967089-.0303797.643038-.0683544 1.296202-.2075949 1.918987-.5822785 2.303797-2.8379747 2.432911-3.4329114 2.432911-.4734177 0-1.4531645-.078481-2.2531645-.612658-1.2658228-.860759-1.286076-2.156962-1.286076-3.541772v-1.946835c-.0101266-.918988-.0101266-1.334178-.0405063-1.551899-.0683545-.544304-.3341772-.643038-.9772152-.683544v-.463292zm30.4481013 0v.463292c-.8303798.129113-.9392406.356962-1.650633 2.058227l-2.6101265 6.237975h-.4658228l-2.3417722-6.336709c-.5848101-1.622785-.6531645-1.820253-1.5240506-1.959493v-.463292h4.0734177v.463292c-.6911392.030379-1.1367088.050632-1.1367088.544303 0 .258228.0607594.455697.2860759 1.177216l1.5037975 4.359493 1.7518987-4.508861c.1088608-.306329.2556962-.691139.2556962-.90886 0-.622785-.6126582-.653165-1.1468354-.663291v-.463292zm40.6962025 8.592405v-.465822c.6708861-.078481.9291139-.098735 1.0962025-.265823.1974684-.197468.1974684-.41519.207595-1.344304v-1.513924l-2.2734178-3.53924c-.6227848-.931646-.6329114-.949368-1.4632911-1v-.473418h4.4683544v.473418c-.8987342.030379-1.2936709.050632-1.2936709.465822 0 .227848.1468355.493671.3746836.86076l1.3164557 2.15443 1.2050633-2.146835c.2177215-.425317.3468354-.681013.3468354-.878481 0-.405064-.356962-.41519-.9493671-.455696v-.473418h3.3518988v.473418c-.8708861.030379-1.1164557.286075-2.0962026 1.888607l-1.3443038 2.235443v1.789874c0 1.562025.0101266 1.670886 1.286076 1.741772v.473417zm-33.3367089 0c0-.622784.0987342-1.640506.1772152-2.225316h-.4151899c-.2962025 1.534177-1.156962 1.453165-2.392405 1.453165-1.1468355 0-1.3746836-.30633-1.3746836-.858228v-2.405064h.9189874c1.0582278 0 1.3645569.088608 1.3645569 1.048102h.4151899v-2.827848h-.4151899c-.0886076.762025-.2481012 1.020253-1.3544303 1.020253h-.929114v-3.027848h1.0481013c1.4632911 0 1.9873418.10886 2.1848101 1.265822h.3848102l-.0481013-2.035443h-6.1113924v.463292c.6126582.060759.878481.098734.9696202.503797.0582279.258228.0683545 1.217722.0683545 1.55443v3.01519c0 .227848-.0101266 1.265823-.0202532 1.463291-.0303797.939241-.1392405 1.027848-1.0177215 1.118988v.473417zm113.7063289-3.73924v.465823c-.782278.050633-.782278.268354-.812658 1.898734v.643038c-.650633.41519-1.610127 1.007595-3.301266 1.007595-2.946835 0-4.362025-2.232912-4.362025-4.478481 0-2.759494 1.860759-4.549367 4.192405-4.549367 1.465823 0 2.306329.55443 3.017721.979747l.435443-.513924.068355 2.688607-.346836.06076c-.177215-.516456-.443037-1.098735-1.086075-1.751899-.288608-.27595-.83038-.632912-1.701266-.632912-1.493671 0-2.739241 1.265823-2.739241 3.739241 0 1.967089.96962 3.658228 2.640507 3.658228.959493 0 1.443038-.673418 1.49367-.721519.156962-.227848.187342-.435443.177216-.810127-.040507-1.088607-.187342-1.118987-1.136709-1.217721v-.465823zm-109.7215187-.868354c.2278481.048101.5544303.078481.8.078481.9797468.010126 1.7215189-.751899 1.7518987-1.443038.0481013-.989874-.4556962-1.86076-2.0278481-1.86076-.2177215 0-.356962.020253-.5240506.050633zm0 1.868354c.0101265 1.967089.0101265 2.235443 1.0379746 2.265823v.473417h-3.5797468v-.473417c.9189873-.081013 1.0177215-.227848 1.0379747-1.149367.0101266-.354431.0101266-.749367.0101266-1.106329v-3.10633c0-1.027848-.0202532-1.392405-.0481013-1.681012-.0708861-.463291-.2987342-.551899-1-.612658v-.463292l3.886076.007595c2.1265822 0 2.7898734 1.010127 2.7898734 2.207595 0 .83038-.5037975 1.898734-1.6911393 2.263291l1.521519 2.650633c.5443038 1.007595.8405063 1.235443 1.5341772 1.334178v.296202c-.1873417.010127-.3670886.020253-.5645569.020253-1.6202532 0-2.2835443-.551899-2.9569621-2.007595l-.4835443-.997468c-.513924-1.088608-.6734177-1.027848-1.4936708-1.037975z" fill="#fff"/><path d="m100.602532 68.4227848-23.5949371-32.2405063v23.4481012h9.3848102v23.1696203h-43.3848102v-23.1696203h8.8025317v-36.0455696h-8.8025317v-23.15189871h34.078481l23.5164561 32.46582281 23.506329-32.46582281h34.068354v23.15189871h-8.8v36.0455696h8.8v23.1696203h-43.382278v-23.1696203h9.38481v-23.4481012z" fill="#ffcb05"/><g fill="#fff"><path d="m10.6911392 106.516456c0 .898734-.1392405 1.650633-.4151898 2.263291-.27848105.602531-.67341775 1.098734-1.18734181 1.463291-.52405063.367089-1.11898734.622785-1.78987341.772152-.67341772.156962-1.43544304.237975-2.28607595.255696-.75949367 0-1.45316456-.078481-2.0556962-.225316-.61265823-.159494-1.13670887-.41519-1.58227849-.782279-.44556962-.367088-.78227848-.820253-1.00759493-1.35443-.2278481-.534177-.34683545-1.197469-.36708861-1.987342v-1.048101h3.50126582v.435443c0 .868354.14683545 1.491139.43544304 1.868354.28607595.38481.76962025.582279 1.44303798.602532.57468354 0 1.0278481-.167089 1.34430379-.483544.32658228-.316456.48607595-.772152.48607595-1.354431 0-.435443-.09873417-.812658-.29873417-1.118987-.19746836-.306329-.52405064-.602532-.98734178-.888608l-1.91898734-1.167088c-.65316456-.397469-1.21518987-.762026-1.67088607-1.098735-.45569621-.336708-.85063292-.691139-1.16708861-1.058227-.3164557-.364557-.55443038-.772152-.68354431-1.235443-.13670886-.4556967-.22531645-1.010127-.2556962-1.6708865-.01012658-.8227848.11898734-1.5240507.38481013-2.1063291.27848101-.5746836.67341772-1.0405064 1.19746835-1.3949368.51392405-.3468354 1.09620253-.6025316 1.73924051-.7721519.64303797-.1670886 1.34683544-.2556962 2.12658228-.2556962 3.20506329 0 4.80759493 1.4025317 4.80759493 4.2126583v.7493671h-3.39240506v-.4050633c0-1.4227848-.55443038-2.1341772-1.67088608-2.1341772-.49620253 0-.90126582.1670886-1.20759493.5037974-.30632912.3367089-.4556962.7797469-.4556962 1.3341772 0 .7417722.3670886 1.3443038 1.11898734 1.8l3.27341772 2.086076c.42531645.278481.8.544304 1.11645569.802532.32658228.255696.58481013.551898.78227852.888607.1974683.336709.3544303.693671.4835443 1.078481.1189873.38481.1696202.850633.1594936 1.425317z"/><path d="m23.6151899 105.891139c0 3.511393-1.7113924 5.263291-5.1417722 5.263291-1.3341772 0-2.3645569-.217721-3.0962025-.663291-.7316456-.445569-1.286076-1.048101-1.6708861-1.83038-.3746835-.779746-.6025316-1.681012-.6632911-2.698734-.0582279-1.020253-.0987342-2.096202-.1088608-3.225316 0-1.167089.0303798-2.263291.1088608-3.301266.0810126-1.0379746.2987342-1.9392405.6632911-2.7215189.3670886-.7797469.9291139-1.3822785 1.6911393-1.8278482.7721519-.4455696 1.8405063-.6734177 3.2329113-.6936708 3.2050633 0 4.807595 1.6430379 4.807595 4.9063291v.5721519h-3.3924051v-.364557c0-1.7316456-.5443038-2.592405-1.6405063-2.592405-.4962025 0-.8708861.149367-1.1291139.4556962-.2556962.3063291-.4531646.7316455-.5924051 1.2860759-.1392405.5443038-.2177215 1.2075949-.2481013 1.9670888-.0303797.762025-.0481012 1.612658-.0481012 2.562025 0 .820253.0177215 1.582279.0481012 2.265823.0303798.691139.0987342 1.293671.2278481 1.807595.1189874.52405.3265823.911392.6126583 1.167088.2962025.258228.6734177.405064 1.1468354.435443.4253165 0 .7518987-.10886.9797468-.316455.2379747-.217722.4050633-.493671.5341773-.83038.1189873-.336709.1974683-.691139.2278481-1.068354.0303797-.384811.0379746-.731646.0379746-1.037975h3.4126583z"/><path d="m33.3670886 110.974684v-7.278481h-3.9164557v7.278481h-3.4708861v-16.5240511h3.4708861v6.5468351h3.9164557v-6.5468351h3.4810127v16.5240511z"/><path d="m51.1265823 102.6c0 1.21519-.0278481 2.351899-.0886076 3.410127-.0582279 1.048101-.286076 1.96962-.6632912 2.76962-.3848101.792405-.9670886 1.405063-1.7392405 1.83038-.7822784.425316-1.8886076.643038-3.3240506.660759-1.3443038 0-2.3822785-.235443-3.1341772-.711392-.7417722-.473418-1.3139241-1.106329-1.6911393-1.898735-.3848101-.789873-.6126582-1.729113-.6911392-2.817721-.0708861-1.078481-.1189873-2.205063-.1291139-3.362025 0-1.146836.0405063-2.225317.1291139-3.2430383.0987342-1.0303798.3367089-1.9291139.7417722-2.7113924.3949367-.7696203.9594936-1.3848101 1.7113924-1.8278481.7493671-.4354431 1.7898734-.6734177 3.113924-.6835443 1.4050633 0 2.4911393.2177215 3.2734177.6430379.7721519.4253165 1.3443038 1.0278481 1.7113924 1.8101266.364557.7696203.5924051 1.6708861.6607595 2.6987342.0810127 1.0202534.1189874 2.1670884.1189874 3.4329114zm-3.5189874-.258228c0-.881013-.0101265-1.681013-.0303797-2.4025315-.0101266-.7113924-.0886076-1.3265823-.2278481-1.8303797-.1392405-.5037975-.3468355-.8987342-.643038-1.1873418-.2860759-.286076-.721519-.4329114-1.3037975-.4329114-.5443038 0-.9696202.1265823-1.2556962.3848101-.2886076.2582279-.5164557.6632912-.6632911 1.2151899-.1493671.5443038-.2379747 1.2379747-.2481013 2.0582274-.0202531.820254-.0303797 1.789874-.0481012 2.90633 0 .931645.0177215 1.751898.0481012 2.473417.0303798.721519.129114 1.313924.2962026 1.810127.1696202.483544.3772152.850633.6329114 1.096202.2683544.248102.6632911.377216 1.1974683.387342.5443038 0 .9797469-.129114 1.2759494-.387342.3063291-.255696.5341772-.660759.6734177-1.215189.1265823-.544304.2151899-1.217722.2455696-2.007595.0303798-.8.0506329-1.749368.0506329-2.868355z"/><path d="m65.1113924 102.6c0 1.21519-.0303797 2.351899-.0886076 3.410127-.0607595 1.048101-.2886076 1.96962-.6632911 2.76962-.3848102.792405-.9696203 1.405063-1.7417722 1.83038-.7797468.425316-1.8886076.643038-3.321519.660759-1.3443038 0-2.3848101-.235443-3.1341772-.711392-.7417721-.473418-1.3164557-1.106329-1.6911392-1.898735-.3873418-.789873-.6151899-1.729113-.6936709-2.817721-.0683544-1.078481-.1189874-2.205063-.1291139-3.362025 0-1.146836.0405063-2.225317.1291139-3.2430383.0987342-1.0303798.3367089-1.9291139.7417721-2.7113924.3949368-.7696203.9594937-1.3848101 1.7113924-1.8278481.7518988-.4354431 1.7898735-.6734177 3.1139241-.6835443 1.4050633 0 2.4936709.2177215 3.2734177.6430379.7721519.4253165 1.3468355 1.0278481 1.7113924 1.8101266.3670886.7696203.5949367 1.6708861.6632912 2.6987342.078481 1.0202534.1189873 2.1670884.1189873 3.4329114zm-3.521519-.258228c0-.881013-.0101266-1.681013-.0303797-2.4025315-.0101266-.7113924-.0886076-1.3265823-.2253165-1.8303797-.1392405-.5037975-.3468354-.8987342-.643038-1.1873418-.2886076-.286076-.7215189-.4329114-1.3063291-.4329114-.5443038 0-.9696202.1265823-1.2556962.3848101-.2860759.2582279-.513924.6632912-.6632911 1.2151899-.1468355.5443038-.2379747 1.2379747-.2455696 2.0582274-.0202532.820254-.0303798 1.789874-.0506329 2.90633 0 .931645.0202531 1.751898.0506329 2.473417.0278481.721519.1265822 1.313924.2962025 1.810127.1670886.483544.3746835.850633.6329114 1.096202.2658228.248102.6607595.377216 1.1949367.387342.5443038 0 .9797468-.129114 1.2759494-.387342.3063291-.255696.5341772-.660759.6734177-1.215189.1291139-.544304.2177215-1.217722.2481013-2.007595.0278481-.8.0481012-1.749368.0481012-2.868355z"/><path d="m67.8101266 110.974684v-16.5240511h3.5012658v13.7746831h5.1316456v2.749368z"/><path d="m94.3341772 102.6c0 1.21519-.0303797 2.351899-.0886076 3.410127-.0607595 1.048101-.2886076 1.96962-.6632911 2.76962-.3873418.792405-.9594937 1.405063-1.7417722 1.83038-.7797468.425316-1.878481.643038-3.321519.660759-1.3341772 0-2.3848101-.235443-3.1341772-.711392-.7417721-.473418-1.3063291-1.106329-1.6911392-1.898735-.3772152-.789873-.6151899-1.729113-.6835443-2.817721-.078481-1.078481-.1291139-2.205063-.1392405-3.362025 0-1.146836.0405063-2.225317.1392405-3.2430383.0886076-1.0303798.3367088-1.9291139.7316456-2.7113924.3949367-.7696203.9696202-1.3848101 1.7113924-1.8278481.7518987-.4354431 1.7898734-.6734177 3.113924-.6835443 1.4050633 0 2.4936709.2177215 3.2734177.6430379.7822785.4253165 1.3544304 1.0278481 1.721519 1.8101266.3670886.7696203.5848101 1.6708861.6632912 2.6987342.0683544 1.0202534.1088607 2.1670884.1088607 3.4329114zm-3.521519-.258228c0-.881013-.0101266-1.681013-.0202531-2.4025315-.0202532-.7113924-.0987342-1.3265823-.2354431-1.8303797-.1291139-.5037975-.3468354-.8987342-.6329114-1.1873418-.2987341-.286076-.7341772-.4329114-1.3063291-.4329114-.5544304 0-.9696202.1265823-1.2658228.3848101-.2860759.2582279-.5037974.6632912-.6632911 1.2151899-.1468354.5443038-.2379747 1.2379747-.2455696 2.0582274-.0202532.820254-.0303798 1.789874-.0506329 2.90633 0 .931645.0202531 1.751898.0506329 2.473417.0278481.721519.1265823 1.313924.2962025 1.810127.1670886.483544.3848101.850633.643038 1.096202.2556962.248102.6506329.377216 1.1848101.387342.5544304 0 .9797468-.129114 1.286076-.387342.3063291-.255696.5240506-.660759.6632911-1.215189.1392405-.544304.2177215-1.217722.2481013-2.007595.0278481-.8.0481012-1.749368.0481012-2.868355z"/><path d="m100.44557 96.9924051v4.2329109h4.875949v2.541773h-4.875949v7.207595h-3.481013v-16.5240511h8.582278v2.5417722z"/><path d="m120.065823 110.974684-4.539241-12.0835448v12.0835448h-3.205063v-16.5240511h4.648101l4.420253 11.4405061v-11.4405061h3.205064v16.5240511z"/><path d="m138.686076 105.437975c0 .810126-.068354 1.562025-.227848 2.263291-.146836.703797-.443038 1.316456-.888608 1.850633-.445569.534177-1.017721.959493-1.741772 1.265823-.711392.296202-1.660759.453164-2.837975.453164-1.936708 0-3.341772-.493671-4.212658-1.463291-.870886-.977215-1.303797-2.422785-1.303797-4.331646v-11.0253161h3.460759v11.0253161c0 .435443.020253.840507.068355 1.237975.040506.394937.149367.759494.316455 1.075949.169621.316456.38481.564557.643038.734178.258228.167088.612659.265822 1.078481.296202.453165 0 .83038-.081012 1.116456-.248101s.524051-.41519.711392-.731646c.179747-.326582.298735-.663291.346836-1.027848.040506-.367088.078481-.792405.108861-1.265823v-11.0962021h3.362025z"/><path d="m148.64557 110.974684c-.197469-.41519-.306329-.762026-.316456-1.058228-.020253-.286076-.03038-.612659-.050633-.977215v-2.177216c0-.503797-.037975-.918987-.118987-1.255696-.068355-.336709-.207595-.602532-.405064-.8-.197468-.197468-.473417-.346835-.830379-.435443-.346836-.098734-.8-.13924-1.344304-.13924h-.643038v6.843038h-3.481013v-16.5240511h5.706329c.653165 0 1.255697.0683544 1.8.2075949.554431.1392406 1.027848.3746836 1.422785.7012659.397468.3367088.713924.792405.939241 1.3544304.227848.5645569.336708 1.2658227.336708 2.1063291 0 1.1873418-.237974 2.1164558-.731645 2.7696198-.483544.653165-1.24557 1.078481-2.283544 1.255697.779746.088607 1.364557.268354 1.759493.52405.394937.268355.693671.605064.870886 1.010127.187342.41519.286076.898734.326583 1.463291.030379.564557.058227 1.205063.10886 1.898734l.068355 1.167089c.03038.336709.050633.681012.068354 1.037974.020253.346836.081013.69114.179747 1.027849zm-.435443-11.7367093c0-.5240506-.050633-.9417722-.159494-1.2379747-.106329-.3063291-.286076-.5341772-.524051-.6708861-.245569-.1291139-.541772-.2278481-.898734-.2683544-.346835-.0481013-.751899-.0683544-1.207595-.0683544h-.483544v4.5974679h.850633c.405063 0 .772152-.027848 1.068354-.088607.306329-.058228.562026-.187342.762026-.364557.197468-.189874.344303-.435443.432911-.734177.091139-.306329.13924-.7012662.159494-1.1645573z"/><path d="m164.526582 106.516456c0 .898734-.136709 1.650633-.41519 2.263291-.265822.602531-.663291 1.098734-1.187341 1.463291-.513924.367089-1.116456.622785-1.779747.772152-.670886.156962-1.432912.237975-2.293671.255696-.762025 0-1.443038-.078481-2.055696-.225316-.61519-.159494-1.139241-.41519-1.582279-.782279-.445569-.367088-.782278-.820253-1.010126-1.35443s-.346836-1.197469-.364557-1.987342v-1.048101h3.498734v.435443c0 .868354.149367 1.491139.435443 1.868354.298734.38481.772152.582279 1.44557.602532.582278 0 1.027848-.167089 1.35443-.483544.316456-.316456.473418-.772152.473418-1.354431 0-.435443-.098735-.812658-.296203-1.118987s-.524051-.602532-.979747-.888608l-1.926582-1.167088c-.653165-.397469-1.207595-.762026-1.670886-1.098735-.455696-.336708-.843038-.691139-1.167089-1.058227-.316455-.364557-.544304-.772152-.683544-1.235443-.139241-.4556967-.217722-1.010127-.258228-1.6708865-.007595-.8227848.118987-1.5240507.397468-2.1063291.27595-.5746836.670887-1.0405064 1.184811-1.3949368.526582-.3468354 1.098734-.6025316 1.741772-.7721519.643038-.1670886 1.35443-.2556962 2.126582-.2556962 3.202532 0 4.805063 1.4025317 4.805063 4.2126583v.7493671h-3.382278v-.4050633c0-1.4227848-.562025-2.1341772-1.670886-2.1341772-.503798 0-.908861.1670886-1.21519.5037974-.306329.3367089-.455696.7797469-.455696 1.3341772 0 .7417722.374683 1.3443038 1.116455 1.8l3.273418 2.086076c.425317.278481.802532.544304 1.129114.802532.316456.255696.572152.551898.76962.888607.197469.336709.367089.693671.486076 1.078481.118988.38481.177215.850633.156962 1.425317z"/><path d="m166.979747 110.974684h3.450633v-16.5240511h-3.450633z"/><path d="m181.121519 110.974684-4.529114-12.0835448v12.0835448h-3.205063v-16.5240511h4.637974l4.420254 11.4405061v-11.4405061h3.205063v16.5240511z"/><path d="m198.359494 110.817722c-.58481.098734-1.177216.187341-1.789874.245569-.61519.06076-1.217721.098734-1.810126.118987-.544304 0-1.108861-.037974-1.670886-.118987-.564557-.078481-1.108861-.217721-1.622785-.432911-.524051-.217722-.979747-.496203-1.374684-.850633-.394936-.346836-.711392-.822785-.959493-1.41519-.118988-.336709-.227849-.683544-.326583-1.048101-.088607-.374684-.156962-.782279-.197468-1.235443-.050633-.465823-.088608-.979747-.118987-1.564557-.03038-.572152-.048102-1.255697-.048102-2.035443 0-1.098735.048102-2.146836.136709-3.1544307.098734-1.0101266.336709-1.9088608.731646-2.7012658.407595-.7898735.989873-1.4227849 1.772152-1.8784811.76962-.4556962 1.837974-.6911392 3.202531-.7113924 1.701266 0 3.017722.4253165 3.936709 1.286076.908861.8506329 1.374684 2.0759494 1.394937 3.6582278v.4354431h-3.432912v-.8025317c0-.6506329-.187341-1.1746835-.55443-1.5518987-.364557-.3848101-.840506-.5721519-1.412658-.5721519-.534177 0-.959494.1468354-1.265823.4329114-.296202.2886076-.534177.6835443-.683544 1.1873418-.146836.5037974-.24557 1.0987341-.27595 1.7898734-.030379.6835438-.040506 1.4354428-.040506 2.2354428v.711393c0 .891139.010127 1.691139.040506 2.405063.03038.721519.129114 1.334177.27595 1.858228.149367.513924.405063.908861.751899 1.187342.356962.275949.830379.415189 1.425316.435443.602532 0 1.194937-.108861 1.759494-.316456v-3.640506h-1.898735v-2.572152h5.311393v8.377215z"/></g></g></svg>